<svg width="100.354" height="100.352" xmlns="http://www.w3.org/2000/svg">

 <g>
  <title>background</title>
  <rect fill="none" id="canvas_background" height="402" width="582" y="-1" x="-1"/>
 </g>
 <g>
  <title>Layer 1</title>
  <path fill="#ffffff" id="svg_1" d="m93.089996,76.223999c0.047005,-0.144997 0.079002,-0.297997 0.079002,-0.459l0,-53.126999c0,-0.162001 -0.031998,-0.316 -0.080002,-0.462c-0.006996,-0.02 -0.010994,-0.040001 -0.018997,-0.060001c-0.064003,-0.171 -0.157997,-0.324999 -0.276001,-0.459999c-0.007996,-0.009001 -0.008995,-0.02 -0.016998,-0.028999c-0.004997,-0.005001 -0.011002,-0.007 -0.015999,-0.012001c-0.125999,-0.133999 -0.275002,-0.242001 -0.442001,-0.323c-0.013,-0.006001 -0.023003,-0.014 -0.036003,-0.02c-0.157997,-0.070999 -0.329994,-0.111 -0.510994,-0.122999c-0.018005,-0.000999 -0.035004,-0.005001 -0.053001,-0.005001c-0.016998,-0.000999 -0.032005,-0.004999 -0.049004,-0.004999l-83.204998,0c-0.017,0 -0.033,0.004 -0.05,0.004999c-0.016,0.001001 -0.032,0.004002 -0.048,0.005001c-0.183,0.011999 -0.358,0.052999 -0.518,0.125c-0.01,0.004 -0.018,0.011 -0.028,0.014999c-0.17,0.081001 -0.321,0.191 -0.448,0.327c-0.005,0.005001 -0.011,0.006001 -0.016,0.011002c-0.008,0.007999 -0.009,0.018999 -0.017,0.028c-0.118,0.135 -0.213,0.289999 -0.277,0.460999c-0.008,0.02 -0.012,0.040001 -0.019,0.061001c-0.048,0.146 -0.08,0.299999 -0.08,0.462l0,53.127998c0,0.164001 0.033,0.32 0.082,0.468002c0.007,0.019997 0.011,0.039001 0.018,0.058998c0.065,0.172005 0.161,0.327003 0.28,0.461998c0.007,0.008003 0.009,0.018005 0.016,0.026001c0.006,0.007004 0.014,0.011002 0.021,0.018005c0.049,0.050995 0.103,0.096001 0.159,0.139999c0.025,0.018997 0.047,0.042 0.073,0.059998c0.066,0.045998 0.137,0.083 0.21,0.116997c0.018,0.008003 0.034,0.021004 0.052,0.028c0.181,0.077003 0.38,0.121002 0.589,0.121002l83.204,0c0.209,0 0.407997,-0.042999 0.589005,-0.121002c0.028,-0.011993 0.053993,-0.029999 0.080994,-0.043999c0.062004,-0.030998 0.124001,-0.062996 0.181,-0.101997c0.030006,-0.021004 0.056999,-0.048004 0.086006,-0.070999c0.050995,-0.041 0.100998,-0.082001 0.144997,-0.128998c0.008003,-0.008003 0.016998,-0.014 0.025002,-0.022003c0.007996,-0.009003 0.010002,-0.021004 0.017998,-0.029999c0.117004,-0.134003 0.210999,-0.288002 0.275002,-0.458c0.010002,-0.022003 0.014999,-0.042999 0.021996,-0.065002zm-83.124996,-50.183998l25.247002,23.061001l-25.247002,23.244999l0,-46.306zm51.745998,21.931c-0.104,0.068001 -0.213997,0.125 -0.300999,0.221001c-0.033001,0.035999 -0.043999,0.083 -0.072998,0.120998l-11.27,10.293999l-37.736001,-34.468998l75.472001,0l-26.092003,23.833zm-24.274998,3.160999l11.618999,10.612999c0.286999,0.262001 0.648998,0.393002 1.012001,0.393002s0.724998,-0.131001 1.010998,-0.393002l11.475002,-10.480999l25.242996,23.001999l-75.486998,0l25.127001,-23.133999zm27.341999,-1.900002l25.390999,-23.191998l0,46.330002l-25.390999,-23.138004z"/>
 </g>
</svg>